<?xml version="1.0" encoding="UTF-8"?>
<svg version="1.1" xmlns="http://www.w3.org/2000/svg" width="512" height="512">
<path d="M0 0 C168.96 0 337.92 0 512 0 C512 168.96 512 337.92 512 512 C343.04 512 174.08 512 0 512 C0 343.04 0 174.08 0 0 Z " fill="#FEFEFE" transform="translate(0,0)"/>
<path d="M0 0 C14 0 14 0 17.6875 1.6875 C21.8326722 5.8326722 23.18810141 8.49402035 23.4375 14.375 C23.262368 19.78949774 22.42837639 22.78045983 19 27 C12.50153963 31.19692233 8.47755573 30 0 30 C0 20.1 0 10.2 0 0 Z " fill="#1F228D" transform="translate(248,252)"/>
<path d="M0 0 C1.32 0 2.64 0 4 0 C4 0.99 4 1.98 4 3 C4.495 2.505 4.99 2.01 5.5 1.5 C8.97529863 -0.58517918 12.10549181 -0.77890164 16 0 C19 1.8125 19 1.8125 21 5 C21.78630096 10.04291095 21.68964511 14.43262475 19.625 19.125 C18 21 18 21 16 22 C8.53333333 22.35555556 8.53333333 22.35555556 5 20 C5 23.63 5 27.26 5 31 C3.35 31 1.7 31 0 31 C0 20.77 0 10.54 0 0 Z " fill="#28272A" transform="translate(202,260)"/>
<path d="M0 0 C3.49406769 1.66762322 4.82670681 2.74006022 7 6 C7.46454629 11.66746469 7.06516036 15.04858712 4 20 C1.39295102 22.60704898 -0.47338241 22.23905333 -4.02734375 22.265625 C-6 22 -6 22 -9 20 C-9.33 23.63 -9.66 27.26 -10 31 C-11.32 31 -12.64 31 -14 31 C-14 21.1 -14 11.2 -14 1 C-13.01 1 -12.02 1 -11 1 C-11 1.66 -11 2.32 -11 3 C-10.29875 2.505 -9.5975 2.01 -8.875 1.5 C-5.52269394 -0.24902925 -3.73275441 -0.4665943 0 0 Z " fill="#1E2586" transform="translate(314,260)"/>
<path d="M0 0 C3.77393354 0.84896923 5.57713897 2.72220685 8.22265625 5.5 C9.22265625 7.5 9.22265625 7.5 9.22265625 13.5 C3.94265625 13.5 -1.33734375 13.5 -6.77734375 13.5 C-6.11734375 15.15 -5.45734375 16.8 -4.77734375 18.5 C-1.86082201 18.66681109 -1.86082201 18.66681109 1.22265625 18.5 C1.88265625 17.84 2.54265625 17.18 3.22265625 16.5 C4.54265625 16.5 5.86265625 16.5 7.22265625 16.5 C5.85282122 19.66115776 5.23359245 20.4927092 2.22265625 22.5 C-4.67992824 23.16799205 -4.67992824 23.16799205 -8.65234375 20.75 C-11.17653438 18.07732757 -12.6698859 16.04022914 -12.9296875 12.31640625 C-12.5455427 8.28637808 -12.02964823 5.88634123 -9.77734375 2.4375 C-6.25743112 0.16422309 -4.12390404 -0.22030873 0 0 Z " fill="#323A98" transform="translate(286.77734375,259.5)"/>
<path d="M0 0 C3.4203866 1.17013226 3.91540482 1.87310723 6 5 C6.31884766 6.90112305 6.31884766 6.90112305 6.4140625 9.01171875 C6.45273438 9.76904297 6.49140625 10.52636719 6.53125 11.30664062 C6.5621875 12.09232422 6.593125 12.87800781 6.625 13.6875 C6.66367188 14.48478516 6.70234375 15.28207031 6.7421875 16.10351562 C6.83632494 18.06863475 6.91924632 20.0342854 7 22 C5.88625 21.814375 4.7725 21.62875 3.625 21.4375 C0.17431139 20.68319343 0.17431139 20.68319343 -2 22 C-9.31219774 22.58033315 -9.31219774 22.58033315 -12 20.3125 C-13.16803602 17.61141671 -13.37367024 15.91462786 -13 13 C-11 10 -11 10 -8 9 C-6.27204648 8.93197033 -4.54164635 8.91504355 -2.8125 8.9375 C-1.91144531 8.94652344 -1.01039063 8.95554687 -0.08203125 8.96484375 C0.60503906 8.97644531 1.29210937 8.98804688 2 9 C1.00864359 6.3726974 1.00864359 6.3726974 -1 4 C-4.5 3.58333333 -4.5 3.58333333 -8 4 C-8.99 4 -9.98 4 -11 4 C-11 3.34 -11 2.68 -11 2 C-7.28428072 -0.47714618 -4.3028023 -0.42593397 0 0 Z " fill="#3B3B3D" transform="translate(191,260)"/>
<path d="M0 0 C10 0 10 0 12.5625 2.375 C15.14479856 7.09050171 15.69670114 10.62146723 15 16 C13.20606332 18.87029869 12.01736724 20.49131638 9 22 C6.03 22 3.06 22 0 22 C0 14.74 0 7.48 0 0 Z " fill="#EDF1FB" transform="translate(252,256)"/>
<path d="M0 0 C1.98 0 3.96 0 6 0 C6.33 0.99 6.66 1.98 7 3 C6.34 3 5.68 3 5 3 C5 2.34 5 1.68 5 1 C4.01 1 3.02 1 2 1 C2 10.9 2 20.8 2 31 C1.67 31 1.34 31 1 31 C1 27.04 1 23.08 1 19 C0.01 19.99 -0.98 20.98 -2 22 C-2.66 22.66 -3.32 23.32 -4 24 C-6.625 23.625 -6.625 23.625 -9 23 C-9 21 -9 21 -6.5 18.375 C-5.675 17.59125 -4.85 16.8075 -4 16 C-7.24983135 17.08784968 -7.24983135 17.08784968 -10 19 C-12.9375 19.1875 -12.9375 19.1875 -16 19 C-16.66 18.34 -17.32 17.68 -18 17 C-18 15.68 -18 14.36 -18 13 C-12.72 13 -7.44 13 -2 13 C-2.66 10.03 -3.32 7.06 -4 4 C-3.34 4 -2.68 4 -2 4 C-1.34 2.68 -0.68 1.36 0 0 Z " fill="#DFDEF6" transform="translate(298,260)"/>
<path d="M0 0 C1.32 0 2.64 0 4 0 C4 8.58 4 17.16 4 26 C8.95 26 13.9 26 19 26 C19 27.32 19 28.64 19 30 C12.73 30 6.46 30 0 30 C0 20.1 0 10.2 0 0 Z " fill="#292829" transform="translate(157,252)"/>
<path d="M0 0 C2.4375 1 2.4375 1 4 2 C3.67 2.99 3.34 3.98 3 5 C2.34 4.67 1.68 4.34 1 4 C-1.3329866 3.95977609 -3.66706666 3.95679753 -6 4 C-6 5.32 -6 6.64 -6 8 C-5.37351562 8.19335938 -4.74703125 8.38671875 -4.1015625 8.5859375 C-3.28429687 8.84632813 -2.46703125 9.10671875 -1.625 9.375 C-0.81289063 9.63023437 -0.00078125 9.88546875 0.8359375 10.1484375 C3 11 3 11 5 13 C5.375 15.9375 5.375 15.9375 5 19 C2.86322259 21.09277056 1.50170993 21.92628906 -1.47265625 22.36328125 C-2.75462891 22.33814453 -2.75462891 22.33814453 -4.0625 22.3125 C-5.34833984 22.30669922 -5.34833984 22.30669922 -6.66015625 22.30078125 C-9 22 -9 22 -12 20 C-12 19.01 -12 18.02 -12 17 C-11.319375 17.165 -10.63875 17.33 -9.9375 17.5 C-6.5835178 18.07089059 -3.39610195 18.06659023 0 18 C0.33 16.68 0.66 15.36 1 14 C0.21753906 13.79503906 -0.56492187 13.59007812 -1.37109375 13.37890625 C-2.38300781 13.10949219 -3.39492188 12.84007812 -4.4375 12.5625 C-5.44683594 12.29566406 -6.45617187 12.02882813 -7.49609375 11.75390625 C-10 11 -10 11 -11 10 C-11.58139535 3.72093023 -11.58139535 3.72093023 -9.4375 1.0625 C-6.11607355 -0.38530127 -3.58945551 -0.3204871 0 0 Z " fill="#262628" transform="translate(351,260)"/>
<path d="M0 0 C0.680625 -0.00515625 1.36125 -0.0103125 2.0625 -0.015625 C4 0.25 4 0.25 7 2.25 C7 3.24 7 4.23 7 5.25 C3.7 4.92 0.4 4.59 -3 4.25 C-3 5.57 -3 6.89 -3 8.25 C-2.37351563 8.44335938 -1.74703125 8.63671875 -1.1015625 8.8359375 C-0.28429687 9.09632813 0.53296875 9.35671875 1.375 9.625 C2.18710938 9.88023437 2.99921875 10.13546875 3.8359375 10.3984375 C6 11.25 6 11.25 8 13.25 C8.55857118 18.50056908 8.55857118 18.50056908 6.75390625 20.921875 C3.56497979 23.33665227 -0.1766494 22.65844901 -4 22.25 C-7.0625 21.25 -7.0625 21.25 -9 20.25 C-8.505 18.765 -8.505 18.765 -8 17.25 C-7.484375 17.415 -6.96875 17.58 -6.4375 17.75 C-3.26636124 18.40049 -0.22781666 18.3120734 3 18.25 C3.33 16.93 3.66 15.61 4 14.25 C3.07767578 14.08564453 3.07767578 14.08564453 2.13671875 13.91796875 C1.32847656 13.75941406 0.52023438 13.60085938 -0.3125 13.4375 C-1.51326172 13.21126953 -1.51326172 13.21126953 -2.73828125 12.98046875 C-5.29709677 12.15404647 -6.42230944 11.41868214 -8 9.25 C-7.875 5.6875 -7.875 5.6875 -7 2.25 C-4.00261059 0.25174039 -3.36652492 -0.02550398 0 0 Z " fill="#2F2F32" transform="translate(235,259.75)"/>
<path d="M0 0 C1.32 0 2.64 0 4 0 C4 2.31 4 4.62 4 7 C5.32 7 6.64 7 8 7 C8 8.32 8 9.64 8 11 C6.68 11 5.36 11 4 11 C4 15.62 4 20.24 4 25 C5.65 25 7.3 25 9 25 C9 26.32 9 27.64 9 29 C5.625 29.125 5.625 29.125 2 29 C0 27 0 27 -0.1953125 23.0859375 C-0.18200376 21.51550649 -0.15813602 19.94513779 -0.125 18.375 C-0.11597656 17.57320313 -0.10695313 16.77140625 -0.09765625 15.9453125 C-0.07406223 13.96341477 -0.03819065 11.98167019 0 10 C-0.99 10 -1.98 10 -3 10 C-3 9.34 -3 8.68 -3 8 C-2.01 8 -1.02 8 0 8 C0 5.36 0 2.72 0 0 Z " fill="#28272D" transform="translate(327,253)"/>
<path d="M0 0 C3 0.375 3 0.375 6 2.375 C7.51546392 9.08634021 7.51546392 9.08634021 6 12.875 C2.9597448 15.1551914 0.68588657 14.83573582 -3 14.375 C-4.9375 13.3125 -4.9375 13.3125 -6 11.375 C-6.39650104 7.74040718 -6.41637627 5.27714858 -4.875 1.9375 C-3 0.375 -3 0.375 0 0 Z " fill="#EEF0FA" transform="translate(310,263.625)"/>
<path d="M0 0 C3.4375 0.8125 3.4375 0.8125 5.4375 3.8125 C5.95864798 7.80796788 5.76919207 9.33569265 3.4375 12.6875 C2.7775 13.38875 2.1175 14.09 1.4375 14.8125 C-1.93712715 14.26526317 -3.64485 13.7576 -6.5625 11.8125 C-6.9609375 9.5 -6.9609375 9.5 -6.9375 6.8125 C-6.94523438 5.925625 -6.95296875 5.03875 -6.9609375 4.125 C-6.82945312 3.361875 -6.69796875 2.59875 -6.5625 1.8125 C-3.5625 -0.1875 -3.5625 -0.1875 0 0 Z " fill="#F5F5F5" transform="translate(213.5625,264.1875)"/>
<path d="M0 0 C2.48212484 4.60966042 4 8.72927515 4 14 C2.88625 13.814375 1.7725 13.62875 0.625 13.4375 C-2.82568861 12.68319343 -2.82568861 12.68319343 -5 14 C-12.31219774 14.58033315 -12.31219774 14.58033315 -15 12.3125 C-16.16803602 9.61141671 -16.37367024 7.91462786 -16 5 C-15.34 4.01 -14.68 3.02 -14 2 C-12.0546875 1.70703125 -12.0546875 1.70703125 -9.875 1.8125 C-8.59625 1.874375 -7.3175 1.93625 -6 2 C-7.65 3.32 -9.3 4.64 -11 6 C-10.67 7.32 -10.34 8.64 -10 10 C-5.85906302 10.20970559 -5.85906302 10.20970559 -2 9 C-2.04125 8.071875 -2.0825 7.14375 -2.125 6.1875 C-2 3 -2 3 0 0 Z " fill="#2B2B2B" transform="translate(194,268)"/>
<path d="M0 0 C13.95518962 -0.68820113 13.95518962 -0.68820113 17.8125 1.75 C19.94148523 3.93981338 20.78466339 4.98528743 21 8 C16.25 7.25 16.25 7.25 14 5 C10.7 4.67 7.4 4.34 4 4 C4 11.26 4 18.52 4 26 C3.67 26 3.34 26 3 26 C3 19.4 3 12.8 3 6 C2.34 6 1.68 6 1 6 C1 4.68 1 3.36 1 2 C3.97 2 6.94 2 10 2 C6.7 1.67 3.4 1.34 0 1 C0 0.67 0 0.34 0 0 Z " fill="#353AA5" transform="translate(248,252)"/>
<path d="M0 0 C0.66 0 1.32 0 2 0 C2 0.99 2 1.98 2 3 C2.99 3 3.98 3 5 3 C4.855625 3.87140625 4.71125 4.7428125 4.5625 5.640625 C3.33697636 13.50440167 2.73775881 21.04535065 3 29 C2.01 29 1.02 29 0 29 C0 19.43 0 9.86 0 0 Z " fill="#212022" transform="translate(203,261)"/>
<path d="M0 0 C2.4375 1 2.4375 1 4 2 C3.67 2.99 3.34 3.98 3 5 C2.34 4.67 1.68 4.34 1 4 C-1.3329866 3.95977609 -3.66706666 3.95679753 -6 4 C-6 5.32 -6 6.64 -6 8 C-4.68 8.66 -3.36 9.32 -2 10 C-2.99 10 -3.98 10 -5 10 C-5 10.66 -5 11.32 -5 12 C-9.875 11.125 -9.875 11.125 -11 10 C-11.58139535 3.72093023 -11.58139535 3.72093023 -9.4375 1.0625 C-6.11607355 -0.38530127 -3.58945551 -0.3204871 0 0 Z " fill="#2C2B2F" transform="translate(351,260)"/>
<path d="M0 0 C10 0 10 0 14 2 C9.48382401 2.07654536 5.40914783 2.10228696 1 1 C1 2.32 1 3.64 1 5 C1.66 5 2.32 5 3 5 C3.18451025 20.74487472 3.18451025 20.74487472 2 28 C1.34 28 0.68 28 0 28 C0 18.76 0 9.52 0 0 Z " fill="#10148F" transform="translate(248,253)"/>
<path d="M0 0 C3.39701883 0.08218594 5.52209835 0.50333152 8.25 2.5625 C10.96550125 5.68532644 11.56037036 7.36046284 11.75 11.4375 C11.09 11.4375 10.43 11.4375 9.75 11.4375 C9.75 10.4475 9.75 9.4575 9.75 8.4375 C9.09 8.4375 8.43 8.4375 7.75 8.4375 C7.42 9.0975 7.09 9.7575 6.75 10.4375 C6.09 8.7875 5.43 7.1375 4.75 5.4375 C-0.53199593 4.23761955 -0.53199593 4.23761955 -5.25 6.4375 C-5.875 4.5625 -5.875 4.5625 -6.25 2.4375 C-3.89048821 0.07798821 -3.23074365 0.09340585 0 0 Z " fill="#232D90" transform="translate(284.25,259.5625)"/>
<path d="M0 0 C1.5625 1.0625 1.5625 1.0625 3 3 C2.87938384 6.37725252 2.57377738 8.95370007 0.9375 11.9375 C-2.18308436 13.6487882 -5.52441797 13.53955608 -9 13 C-9.99 12.34 -10.98 11.68 -12 11 C-12 10.01 -12 9.02 -12 8 C-11.37351562 8.03480469 -10.74703125 8.06960938 -10.1015625 8.10546875 C-9.28429687 8.13253906 -8.46703125 8.15960938 -7.625 8.1875 C-6.40683594 8.23970703 -6.40683594 8.23970703 -5.1640625 8.29296875 C-4.44992187 8.19628906 -3.73578125 8.09960938 -3 8 C-1.0549 5.08235 -0.54723683 3.37462715 0 0 Z " fill="#262B72" transform="translate(317,269)"/>
<path d="M0 0 C0.66 0 1.32 0 2 0 C2.5775 0.99 3.155 1.98 3.75 3 C5.69932433 6.32322223 5.69932433 6.32322223 9.125 6.5 C12.12052548 6.26313679 12.12052548 6.26313679 14 4 C15.32 4 16.64 4 18 4 C16.63016497 7.16115776 16.0109362 7.9927092 13 10 C8.38998859 10.44613014 6.08061745 10.58533445 2 8.375 C0 6 0 6 -0.3125 2.75 C-0.209375 1.8425 -0.10625 0.935 0 0 Z " fill="#0B1385" transform="translate(276,272)"/>
<path d="M0 0 C6.46153846 0.46153846 6.46153846 0.46153846 9 3 C9 4.32 9 5.64 9 7 C5.04 7 1.08 7 -3 7 C-2 2 -2 2 0 0 Z " fill="#C5CCF8" transform="translate(282,263)"/>
<path d="M0 0 C1.32 0.33 2.64 0.66 4 1 C3.01 1 2.02 1 1 1 C1 10.57 1 20.14 1 30 C1.99 30 2.98 30 4 30 C3.91621094 29.0821875 3.83242187 28.164375 3.74609375 27.21875 C3.1980586 20.61457959 2.82400343 14.53331426 4 8 C4.33 8 4.66 8 5 8 C5.1953125 10.01822917 5.390625 12.03645833 5.5859375 14.0546875 C5.86374749 16.22668245 5.86374749 16.22668245 8 18 C7.34 18 6.68 18 6 18 C5.67 22.29 5.34 26.58 5 31 C3.35 31 1.7 31 0 31 C0 20.77 0 10.54 0 0 Z " fill="#727274" transform="translate(202,260)"/>
<path d="M0 0 C4.95 0 9.9 0 15 0 C14.67 0.99 14.34 1.98 14 3 C11.5 4.125 11.5 4.125 9 5 C8.67 5.33 8.34 5.66 8 6 C5.0625 6.1875 5.0625 6.1875 2 6 C1.34 5.34 0.68 4.68 0 4 C0 2.68 0 1.36 0 0 Z " fill="#ECF1FD" transform="translate(280,273)"/>
<path d="M0 0 C2.05078125 0.03255208 4.1015625 0.06510417 6.15234375 0.09765625 C6.48234375 1.74765625 6.81234375 3.39765625 7.15234375 5.09765625 C3.69988551 7.39929507 2.20495662 7.44255947 -1.84765625 7.09765625 C-2.50765625 6.43765625 -3.16765625 5.77765625 -3.84765625 5.09765625 C-3.1001104 0.16385362 -3.1001104 0.16385362 0 0 Z " fill="#ECEBEC" transform="translate(185.84765625,271.90234375)"/>
<path d="M0 0 C4.6613779 -0.32521241 7.24064446 0.18048334 11 3 C13.67927341 7.01891012 13.15601248 9.24161923 13 14 C12.01 14 11.02 14 10 14 C10 12.35 10 10.7 10 9 C9.34 9 8.68 9 8 9 C7.67 8.01 7.34 7.02 7 6 C3.48809191 4.77030122 3.48809191 4.77030122 0 4 C1.32 3.67 2.64 3.34 4 3 C4 2.34 4 1.68 4 1 C2.68 0.67 1.36 0.34 0 0 Z " fill="#292C80" transform="translate(308,260)"/>
<path d="M0 0 C2.31 0.33 4.62 0.66 7 1 C6.525625 1.86625 6.05125 2.7325 5.5625 3.625 C3.86499355 6.86337782 3.86499355 6.86337782 3.5625 10.125 C2.88127716 13.6068056 1.75322775 14.83079026 -1 17 C-1.66 17 -2.32 17 -3 17 C-2.690625 16.236875 -2.38125 15.47375 -2.0625 14.6875 C-0.66197419 9.82685159 -0.34020266 5.03141827 0 0 Z " fill="#EBEEFD" transform="translate(271,261)"/>
<path d="M0 0 C0.99 0.66 1.98 1.32 3 2 C3 2.99 3 3.98 3 5 C1.20793453 4.85915204 -0.58364917 4.71216299 -2.375 4.5625 C-3.37273437 4.48128906 -4.37046875 4.40007812 -5.3984375 4.31640625 C-8 4 -8 4 -10 3 C-10.33 4.32 -10.66 5.64 -11 7 C-11.33 6.01 -11.66 5.02 -12 4 C-8.40707576 -0.79056565 -5.61505647 -0.53476728 0 0 Z " fill="#3A3A3F" transform="translate(239,260)"/>
<path d="M0 0 C0.33 0 0.66 0 1 0 C1 4.62 1 9.24 1 14 C2.65 14 4.3 14 6 14 C6 15.32 6 16.64 6 18 C3.69 18 1.38 18 -1 18 C-1.5625 16.0625 -1.5625 16.0625 -2 14 C-1.67 13.67 -1.34 13.34 -1 13 C-0.76518307 10.81707226 -0.58636677 8.62796826 -0.4375 6.4375 C-0.35371094 5.23996094 -0.26992188 4.04242188 -0.18359375 2.80859375 C-0.12300781 1.88175781 -0.06242187 0.95492188 0 0 Z " fill="#303033" transform="translate(330,264)"/>
<path d="M0 0 C-1.75 4.875 -1.75 4.875 -4 6 C-6.6723621 6.13415472 -9.32250488 6.04318541 -12 6 C-12.66 4.68 -13.32 3.36 -14 2 C-12.39125 2.061875 -12.39125 2.061875 -10.75 2.125 C-6.60202868 1.98673429 -4.00400526 0 0 0 Z " fill="#262526" transform="translate(222,276)"/>
<path d="M0 0 C2.48212484 4.60966042 4 8.72927515 4 14 C2.68 14 1.36 14 0 14 C0 13.01 0 12.02 0 11 C-0.66 11 -1.32 11 -2 11 C-2.25 3.375 -2.25 3.375 0 0 Z " fill="#19181D" transform="translate(194,268)"/>
<path d="M0 0 C0.33 0.66 0.66 1.32 1 2 C0.34 2 -0.32 2 -1 2 C-1.33 2.99 -1.66 3.98 -2 5 C-3.258125 5.020625 -4.51625 5.04125 -5.8125 5.0625 C-6.52019531 5.07410156 -7.22789062 5.08570313 -7.95703125 5.09765625 C-10 5 -10 5 -13 4 C-12.67 3.01 -12.34 2.02 -12 1 C-12 1.66 -12 2.32 -12 3 C-11.505 2.505 -11.01 2.01 -10.5 1.5 C-6.88369842 -0.66978095 -4.17768384 -0.20888419 0 0 Z " fill="#39383A" transform="translate(218,260)"/>
<path d="M0 0 C1.21816406 0.03480469 1.21816406 0.03480469 2.4609375 0.0703125 C3.68683594 0.09738281 3.68683594 0.09738281 4.9375 0.125 C5.87722656 0.15980469 5.87722656 0.15980469 6.8359375 0.1953125 C7.1659375 0.8553125 7.4959375 1.5153125 7.8359375 2.1953125 C6.89621094 2.50275391 6.89621094 2.50275391 5.9375 2.81640625 C5.12023437 3.08582031 4.30296875 3.35523438 3.4609375 3.6328125 C2.64882813 3.89964844 1.83671875 4.16648437 1 4.44140625 C-1.17438049 5.14710979 -1.17438049 5.14710979 -3.1640625 6.1953125 C-3.7890625 4.3203125 -3.7890625 4.3203125 -4.1640625 2.1953125 C-2.1640625 0.1953125 -2.1640625 0.1953125 0 0 Z " fill="#1B2681" transform="translate(282.1640625,259.8046875)"/>
<path d="M0 0 C1.5625 1.0625 1.5625 1.0625 3 3 C2.875 6.5625 2.875 6.5625 2 10 C1.01 10.66 0.02 11.32 -1 12 C-1.66 11.67 -2.32 11.34 -3 11 C-2.11223998 7.30099992 -1.05418136 3.65449539 0 0 Z " fill="#1A1D70" transform="translate(317,269)"/>
<path d="M0 0 C1.32 0 2.64 0 4 0 C2.63016497 3.16115776 2.0109362 3.9927092 -1 6 C-3.04296875 6.1953125 -3.04296875 6.1953125 -5.1875 6.125 C-7.0746875 6.063125 -7.0746875 6.063125 -9 6 C-6.63672401 3.26357517 -4.36305523 2.23902035 -1 1 C-0.67 0.67 -0.34 0.34 0 0 Z " fill="#2B347D" transform="translate(290,276)"/>
<path d="M0 0 C1.32 0.66 2.64 1.32 4 2 C4 5.63 4 9.26 4 13 C3.67 13 3.34 13 3 13 C3 10.69 3 8.38 3 6 C2.34 6 1.68 6 1 6 C0.67 6.99 0.34 7.98 0 9 C-0.66 6.36 -1.32 3.72 -2 1 C-1.34 0.67 -0.68 0.34 0 0 Z " fill="#282C94" transform="translate(267,259)"/>
<path d="M0 0 C5.625 -0.25 5.625 -0.25 9 2 C9 3.32 9 4.64 9 6 C5.9168649 4.80100302 2.93720508 3.52299523 0 2 C0 1.34 0 0.68 0 0 Z " fill="#1D1D1E" transform="translate(346,270)"/>
<path d="M0 0 C1.32 0 2.64 0 4 0 C4.33 1.65 4.66 3.3 5 5 C2.36 5 -0.28 5 -3 5 C-1.75 2.5 -1.75 2.5 0 0 Z " fill="#F8F9FE" transform="translate(284,264)"/>
<path d="M0 0 C1.8871875 0.061875 1.8871875 0.061875 3.8125 0.125 C3.4825 1.115 3.1525 2.105 2.8125 3.125 C-3.8125 4.125 -3.8125 4.125 -7.1875 4.125 C-7.1875 3.465 -7.1875 2.805 -7.1875 2.125 C-4.09861478 0.06574319 -3.47814073 -0.1140374 0 0 Z " fill="#333233" transform="translate(187.1875,259.875)"/>
<path d="M0 0 C2 2 2 2 2.1953125 4.1640625 C2.16050781 5.38222656 2.16050781 5.38222656 2.125 6.625 C2.10695312 7.44226563 2.08890625 8.25953125 2.0703125 9.1015625 C2.04710937 9.72804688 2.02390625 10.35453125 2 11 C1.01 11 0.02 11 -1 11 C-1.02688151 9.35425434 -1.04634123 7.70838587 -1.0625 6.0625 C-1.07410156 5.14597656 -1.08570313 4.22945313 -1.09765625 3.28515625 C-1 1 -1 1 0 0 Z " fill="#151417" transform="translate(204,279)"/>
<path d="M0 0 C3.3 0.99 6.6 1.98 10 3 C10 3.66 10 4.32 10 5 C8.54119891 4.85892253 7.08296449 4.71197585 5.625 4.5625 C4.40683594 4.44068359 4.40683594 4.44068359 3.1640625 4.31640625 C1 4 1 4 -1 3 C-0.67 2.01 -0.34 1.02 0 0 Z " fill="#29282A" transform="translate(227,277)"/>
<path d="M0 0 C-1 2 -1 2 -2.5625 2.625 C-6.06398181 3.16368951 -9.45806833 3.05903219 -13 3 C-11.68 2.67 -10.36 2.34 -9 2 C-9 1.34 -9 0.68 -9 0 C-5.62182575 -0.84454356 -3.32534757 -1.10844919 0 0 Z " fill="#383738" transform="translate(194,279)"/>
<path d="M0 0 C3.63 0.66 7.26 1.32 11 2 C11 2.33 11 2.66 11 3 C9.02 3 7.04 3 5 3 C5 3.66 5 4.32 5 5 C2.525 4.01 2.525 4.01 0 3 C0 2.01 0 1.02 0 0 Z " fill="#3D3C3E" transform="translate(339,277)"/>
<path d="M0 0 C0.99 0.33 1.98 0.66 3 1 C2.67 2.65 2.34 4.3 2 6 C-1 6 -1 6 -4 5 C-4 4.34 -4 3.68 -4 3 C-2.1875 1.3125 -2.1875 1.3125 0 0 Z " fill="#E8EDFA" transform="translate(293,278)"/>
<path d="M0 0 C0.66 0 1.32 0 2 0 C2 2.97 2 5.94 2 9 C1.01 9 0.02 9 -1 9 C-0.67 6.03 -0.34 3.06 0 0 Z " fill="#0C1285" transform="translate(268,265)"/>
<path d="M0 0 C3.3 0 6.6 0 10 0 C9.67 0.99 9.34 1.98 9 3 C5.625 3.1875 5.625 3.1875 2 3 C1.34 2.01 0.68 1.02 0 0 Z " fill="#575758" transform="translate(183,269)"/>
<path d="M0 0 C2.875 -0.125 2.875 -0.125 6 0 C6.66 0.66 7.32 1.32 8 2 C7.67 2.99 7.34 3.98 7 5 C4.69 4.67 2.38 4.34 0 4 C1.32 3.67 2.64 3.34 4 3 C4 2.34 4 1.68 4 1 C2.68 0.67 1.36 0.34 0 0 Z " fill="#2E3185" transform="translate(308,260)"/>
<path d="M0 0 C0.33 0.66 0.66 1.32 1 2 C1.99 2.33 2.98 2.66 4 3 C2.68 4.32 1.36 5.64 0 7 C-0.99 5.68 -1.98 4.36 -3 3 C-2.01 2.01 -1.02 1.02 0 0 Z " fill="#333299" transform="translate(266,272)"/>
<path d="M0 0 C2.31 0 4.62 0 7 0 C7.66 1.32 8.32 2.64 9 4 C6.03 3.505 6.03 3.505 3 3 C3 2.34 3 1.68 3 1 C2.01 0.67 1.02 0.34 0 0 Z " fill="#1C1F21" transform="translate(234,271)"/>
<path d="M0 0 C1.65 0.33 3.3 0.66 5 1 C4.67 1.99 4.34 2.98 4 4 C1.69 4 -0.62 4 -3 4 C-2.01 3.34 -1.02 2.68 0 2 C0 1.34 0 0.68 0 0 Z " fill="#38383A" transform="translate(332,278)"/>
<path d="M0 0 C3.3 0.33 6.6 0.66 10 1 C10 1.33 10 1.66 10 2 C7.36 2 4.72 2 2 2 C2 2.66 2 3.32 2 4 C1.34 4 0.68 4 0 4 C0 2.68 0 1.36 0 0 Z " fill="#1A24AE" transform="translate(249,254)"/>
<path d="M0 0 C0.33 0 0.66 0 1 0 C1.1953125 2.01822917 1.390625 4.03645833 1.5859375 6.0546875 C1.86374749 8.22668245 1.86374749 8.22668245 4 10 C2.68 10.33 1.36 10.66 0 11 C-1.35015859 6.94952424 -0.62084998 4.2079832 0 0 Z " fill="#5A595E" transform="translate(206,268)"/>
<path d="M0 0 C0.103125 0.639375 0.20625 1.27875 0.3125 1.9375 C0.539375 2.618125 0.76625 3.29875 1 4 C1.99 4.33 2.98 4.66 4 5 C3.01 5.99 2.02 6.98 1 8 C1 7.34 1 6.68 1 6 C0.34 6 -0.32 6 -1 6 C-1.042721 4.33388095 -1.04063832 2.66617115 -1 1 C-0.67 0.67 -0.34 0.34 0 0 Z " fill="#111BA2" transform="translate(277,266)"/>
<path d="M0 0 C1.98 0.66 3.96 1.32 6 2 C5.01 2.33 4.02 2.66 3 3 C3 3.66 3 4.32 3 5 C1.35 4.67 -0.3 4.34 -2 4 C-1.34 2.68 -0.68 1.36 0 0 Z " fill="#39373B" transform="translate(343,267)"/>
<path d="M0 0 C0.66 0.33 1.32 0.66 2 1 C1.2884375 2.0828125 1.2884375 2.0828125 0.5625 3.1875 C-0.94152903 5.89475226 -1.56599182 7.96194275 -2 11 C-2.33 11 -2.66 11 -3 11 C-3.36923077 4.6 -3.36923077 4.6 -1.5 1.5625 C-1.005 1.046875 -0.51 0.53125 0 0 Z " fill="#DDE4FC" transform="translate(307,264)"/>
<path d="M0 0 C1.32 0.33 2.64 0.66 4 1 C3.67 2.32 3.34 3.64 3 5 C2.01 4.67 1.02 4.34 0 4 C0 2.68 0 1.36 0 0 Z " fill="#151F7D" transform="translate(315,262)"/>
</svg>
